<svg width="97" height="35" viewBox="0 0 97 35" fill="none" xmlns="http://www.w3.org/2000/svg">
<g clip-path="url(#clip0_408_1773)">
<path d="M29.186 7.99994L23.321 25.8069C23.1542 26.2933 22.8491 26.7205 22.443 27.0359C22.051 27.3385 21.5682 27.4996 21.073 27.4929C20.5682 27.5022 20.0751 27.3412 19.673 27.0359C19.2702 26.7247 18.9753 26.2948 18.83 25.8069L14.611 13.0579L10.4 25.8069C10.2332 26.2933 9.92807 26.7205 9.522 27.0359C9.12999 27.3385 8.64715 27.4996 8.152 27.4929C7.64725 27.5022 7.15408 27.3412 6.752 27.0359C6.34582 26.7261 6.04769 26.296 5.9 25.8069L0 7.99994H3.337L8.148 22.5759L12.925 7.99994H16.262L21.073 22.5759L25.885 7.99994H29.186Z" fill="white"/>
<path d="M37.667 27.4929C36.385 27.4986 35.1143 27.2541 33.926 26.7729C32.7416 26.2914 31.6711 25.5676 30.783 24.6479C29.88 23.7497 29.1638 22.6815 28.676 21.5049C28.1835 20.3194 27.9326 19.0476 27.938 17.7639C27.9322 16.4792 28.1831 15.2063 28.676 14.0199C29.1642 12.8444 29.8803 11.7772 30.783 10.8799C31.6735 9.95892 32.7431 9.22996 33.926 8.73791C35.1115 8.24541 36.3833 7.99451 37.667 7.99991C38.9954 7.97495 40.3135 8.23869 41.53 8.77291C42.6461 9.28165 43.6135 10.0676 44.34 11.0559C44.9792 11.8565 45.4079 12.8043 45.587 13.8129C45.7454 14.7283 45.6051 15.6703 45.187 16.4999C44.7376 17.3945 44.0188 18.1255 43.132 18.5899C42.1533 19.1064 41.0595 19.3662 39.953 19.3449H31.275C31.456 20.0552 31.7526 20.7309 32.153 21.3449C32.5443 21.9461 33.0306 22.4797 33.593 22.9249C34.1578 23.3721 34.7927 23.7229 35.472 23.9629C36.1786 24.2118 36.9229 24.3366 37.672 24.3319C39.3074 24.351 40.8889 23.7483 42.097 22.6459L44.238 24.9639C43.3431 25.7722 42.3072 26.4091 41.182 26.8429C40.0608 27.2758 38.8689 27.4963 37.667 27.4929ZM39.95 16.1839C40.4635 16.1934 40.973 16.0911 41.443 15.8839C41.8255 15.7329 42.1436 15.4536 42.343 15.0939C42.4351 14.9094 42.486 14.707 42.4921 14.5008C42.4981 14.2946 42.4592 14.0895 42.378 13.8999C42.2473 13.5609 42.0699 13.2419 41.851 12.9519C41.3493 12.3396 40.7075 11.8572 39.9799 11.5454C39.2523 11.2337 38.4604 11.1018 37.671 11.1609C36.9204 11.156 36.1751 11.2868 35.471 11.5469C34.7932 11.7973 34.1591 12.153 33.592 12.6009C33.0296 13.0462 32.5433 13.5798 32.152 14.1809C31.7516 14.7949 31.455 15.4706 31.274 16.1809L39.95 16.1839Z" fill="white"/>
<path d="M62.801 10.8799C63.7015 11.7788 64.4152 12.847 64.901 14.0229C65.3924 15.2086 65.6426 16.4804 65.637 17.7639C65.6424 19.0476 65.3915 20.3194 64.899 21.5049C64.4062 22.6894 63.6909 23.7686 62.792 24.6839C61.8822 25.5791 60.8109 26.2937 59.635 26.7899C58.4446 27.2857 57.1665 27.5367 55.877 27.5279C54.2176 27.5407 52.5834 27.1217 51.135 26.3119V34.8329H47.974V14.9539C47.9622 13.9811 48.1593 13.017 48.552 12.1269C48.9383 11.2714 49.5065 10.5104 50.217 9.89691C50.9846 9.27928 51.8572 8.80504 52.793 8.49691C53.8047 8.16233 54.8645 7.99612 55.93 8.00491C56.2107 8.00491 56.4913 8.01658 56.772 8.03991C57.0527 8.06324 57.333 8.09824 57.613 8.14491C59.5869 8.48844 61.4022 9.44545 62.801 10.8799ZM55.891 24.3669C56.7743 24.3735 57.6496 24.1993 58.463 23.8549C59.2477 23.5243 59.9608 23.0448 60.563 22.4429C61.1636 21.8403 61.6421 21.1272 61.972 20.3429C62.3157 19.5272 62.4896 18.65 62.483 17.7649C62.4896 16.8798 62.3157 16.0026 61.972 15.1869C61.6421 14.4026 61.1636 13.6895 60.563 13.0869C59.9608 12.485 59.2477 12.0055 58.463 11.6749C57.6496 11.3305 56.7743 11.1563 55.891 11.1629C54.5907 11.0951 53.3111 11.51 52.298 12.3279C51.9148 12.6434 51.6102 13.0437 51.4083 13.4972C51.2065 13.9508 51.1129 14.445 51.135 14.9409V22.3199C51.7533 22.9676 52.4962 23.4836 53.319 23.8369C54.1309 24.188 55.0064 24.3684 55.891 24.3669Z" fill="white"/>
<path d="M67.929 27.4929V13.7199C67.9015 12.9426 68.0517 12.1693 68.3681 11.4588C68.6845 10.7483 69.1588 10.1194 69.755 9.6199C70.3961 9.08436 71.1342 8.67698 71.929 8.4199C72.8136 8.13254 73.7389 7.99036 74.669 7.9989H74.739C76.2682 7.98838 77.7723 8.38865 79.094 9.1579L77.514 11.8979C76.6724 11.4063 75.7136 11.1513 74.739 11.1599H74.637C74.0899 11.1543 73.5451 11.2311 73.021 11.3879C72.5711 11.5179 72.1527 11.7392 71.792 12.0379C71.5554 12.2477 71.3695 12.5084 71.2483 12.8005C71.127 13.0925 71.0736 13.4082 71.092 13.7239V27.4929H67.929Z" fill="white"/>
<path d="M87.157 27.4929C85.875 27.4987 84.6043 27.2541 83.416 26.7729C82.2316 26.2915 81.1611 25.5676 80.273 24.6479C79.3532 23.7596 78.6293 22.6887 78.148 21.5039C77.6668 20.3157 77.4223 19.0449 77.428 17.7629C77.422 16.4803 77.6666 15.2088 78.148 14.0199C78.6298 12.8367 79.3536 11.7671 80.273 10.8799C81.1635 9.95894 82.2331 9.22998 83.416 8.73794C84.6015 8.24544 85.8733 7.99453 87.157 7.99994C88.435 7.99345 89.7011 8.24444 90.88 8.73794C92.0637 9.23826 93.1376 9.96601 94.041 10.8799C94.9437 11.7773 95.6598 12.8444 96.148 14.0199C96.6405 15.2054 96.8914 16.4773 96.886 17.7609C96.8914 19.0446 96.6405 20.3165 96.148 21.5019C95.6602 22.6785 94.9441 23.7467 94.041 24.6449C93.1401 25.5576 92.0652 26.2802 90.88 26.7699C89.6985 27.2531 88.4334 27.4988 87.157 27.4929ZM87.157 11.1609C86.2748 11.1546 85.4012 11.3342 84.593 11.6879C83.8138 12.0275 83.1049 12.5098 82.503 13.1099C81.906 13.7099 81.4307 14.4196 81.103 15.1999C80.7606 16.011 80.5874 16.8835 80.594 17.7639C80.5874 18.6443 80.7606 19.5168 81.103 20.3279C81.4304 21.109 81.9058 21.8194 82.503 22.4199C83.103 23.0169 83.8126 23.4923 84.593 23.8199C85.4041 24.1624 86.2766 24.3356 87.157 24.3289C88.0374 24.3356 88.9099 24.1624 89.721 23.8199C90.5014 23.4923 91.211 23.0169 91.811 22.4199C92.408 21.82 92.8834 21.1103 93.211 20.3299C93.5534 19.5188 93.7266 18.6463 93.72 17.7659C93.7266 16.8855 93.5534 16.013 93.211 15.2019C92.8834 14.4216 92.408 13.7119 91.811 13.1119C91.2091 12.5118 90.5002 12.0295 89.721 11.6899C88.913 11.3355 88.0393 11.1552 87.157 11.1609Z" fill="white"/>
</g>
<defs>
<clipPath id="clip0_408_1773">
<rect width="96.887" height="26.833" fill="white" transform="translate(0 8)"/>
</clipPath>
</defs>
</svg>
